<svg width="20" height="20" viewBox="0 0 20 20" fill="none" xmlns="http://www.w3.org/2000/svg">
<g opacity="0.9">
<path fill-rule="evenodd" clip-rule="evenodd" d="M1.51476 16.3639L16.364 1.51466C16.9498 0.928872 17.8995 0.928872 18.4853 1.51466C19.0711 2.10044 19.0711 3.05019 18.4853 3.63598L3.63608 18.4852C3.0503 19.071 2.10055 19.071 1.51476 18.4852C0.928975 17.8994 0.928975 16.9497 1.51476 16.3639Z" fill="white"/>
<path fill-rule="evenodd" clip-rule="evenodd" d="M3.6361 1.51476L18.4853 16.364C19.0711 16.9498 19.0711 17.8995 18.4853 18.4853C17.8996 19.0711 16.9498 19.0711 16.364 18.4853L1.51478 3.63608C0.928993 3.0503 0.928993 2.10055 1.51478 1.51476C2.10057 0.928975 3.05031 0.928975 3.6361 1.51476Z" fill="white"/>
</g>
</svg>
