<svg width="70" height="70" viewBox="0 0 70 70" fill="none" xmlns="http://www.w3.org/2000/svg">
<path d="M69.4494 36.9097C69.8069 36.4272 70 35.8423 70 35.2413C70 34.6404 69.8069 34.0554 69.4494 33.5729C64.889 27.4641 59.6979 22.7407 53.8761 19.4028C47.8533 15.9306 41.5591 14.1944 34.9934 14.1944C30.5527 14.191 26.1486 15.0006 21.9983 16.5833L15.4558 10L10.4171 15.0764L54.992 60L60.0306 54.9236L55.335 50.191C60.5608 46.9317 65.2656 42.5046 69.4494 36.9097ZM45.3964 24.7569C46.852 26.2185 47.9884 27.9673 48.7335 29.8924C49.4417 31.7396 49.7758 33.7097 49.7163 35.6877C49.6568 37.6657 49.2049 39.612 48.387 41.4132C48.2033 41.8125 48.0058 42.2049 47.791 42.5833L42.6241 37.3958C42.7784 36.8569 42.8737 36.3027 42.9083 35.7431C42.9811 34.582 42.8026 33.4189 42.385 32.3333C41.9876 31.299 41.3797 30.3589 40.5999 29.5728C39.8201 28.7867 38.8856 28.1719 37.8558 27.7674C36.782 27.3592 35.6337 27.1852 34.4875 27.2569C33.9289 27.2927 33.3753 27.3834 32.8345 27.5278L27.7231 22.3472C28.0948 22.1271 28.4776 21.9266 28.8701 21.7465C30.5063 20.9873 32.2688 20.5388 34.0682 20.4236C36.2053 20.2775 38.3481 20.6108 40.3404 21.3993C42.2424 22.1503 43.9651 23.2944 45.3964 24.7569ZM27.0959 35.7882C27.1434 36.5863 27.3141 37.3723 27.6018 38.1181C27.9878 39.1639 28.5982 40.1122 29.3899 40.8958C30.7328 42.2638 32.5314 43.0883 34.4424 43.2118L27.0959 35.7882ZM0.000293549 35.2326C-0.00849295 35.8355 0.180183 36.4246 0.537423 36.9097C5.10938 43.0185 10.3005 47.7454 16.1107 51.0903C22.1312 54.5347 28.4277 56.2581 35.0003 56.2604C38.6562 56.2632 42.2912 55.7094 45.7811 54.6181L40.285 49.0625C37.9732 49.9405 35.4785 50.2234 33.0293 49.8853C30.5801 49.5472 28.2547 48.5989 26.266 47.1272C24.2773 45.6555 22.6888 43.7074 21.6459 41.4614C20.6031 39.2153 20.1392 36.743 20.2969 34.2708C20.3943 32.7737 20.7167 31.2999 21.2533 29.8993L12.8602 21.4444C8.34832 24.5787 4.24073 28.6192 0.537423 33.566C0.182343 34.0483 -0.0062192 34.6334 0.000293549 35.2326Z" fill="url(#paint0_linear_722_16053)"/>
<defs>
<linearGradient id="paint0_linear_722_16053" x1="3.68019e-07" y1="26" x2="71.1267" y2="31.0674" gradientUnits="userSpaceOnUse">
<stop stop-color="white" stop-opacity="0.5"/>
<stop offset="1" stop-color="#FDFDFD" stop-opacity="0.4"/>
</linearGradient>
</defs>
</svg>
