<svg width="21" height="15" viewBox="0 0 21 15" fill="none" xmlns="http://www.w3.org/2000/svg">
<path d="M0.58073 4.80946C1.24371 4.16082 2.31861 4.16082 2.98159 4.80946L9.7435 11.4252C10.4065 12.0738 10.4065 13.1255 9.7435 13.7741C9.08053 14.4228 8.00563 14.4228 7.34265 13.7741L0.58073 7.15841C-0.0822486 6.50977 -0.0822483 5.45811 0.58073 4.80946Z" fill="white"/>
<path fill-rule="evenodd" clip-rule="evenodd" d="M20.396 1.17889C21.0587 1.82724 21.0587 2.87843 20.396 3.52678L9.91847 13.7778C9.25579 14.4261 8.18137 14.4261 7.51869 13.7778C6.85601 13.1294 6.85601 12.0783 7.51869 11.4299L17.9962 1.17889C18.6589 0.53054 19.7333 0.530538 20.396 1.17889Z" fill="white"/>
</svg>
