<svg width="70" height="70" viewBox="0 0 70 70" fill="none" xmlns="http://www.w3.org/2000/svg">
<path d="M58.1069 19.4226C56.6703 18.014 54.8391 17.0555 52.8456 16.6688C50.8521 16.2821 48.7863 16.4848 46.9105 17.2509C45.0347 18.0171 43.4336 19.3123 42.3105 20.972C41.1874 22.6317 40.5929 24.581 40.6025 26.5725C40.6054 29.2318 41.686 31.7811 43.6065 33.6598C45.5271 35.5385 48.1304 36.5929 50.844 36.5909C52.1901 36.5957 53.524 36.3401 54.7692 35.8389C56.0144 35.3377 57.1465 34.6007 58.1005 33.67C59.0546 32.7394 59.812 31.6334 60.3293 30.4155C60.8465 29.1976 61.1135 27.8917 61.115 26.5725C61.1363 25.246 60.8816 23.9291 60.3663 22.7023C59.851 21.4754 59.086 20.3644 58.1179 19.437L58.1069 19.4226ZM34.0383 21.8876C34.0609 20.3792 33.7692 18.8821 33.1812 17.4879C32.5932 16.0937 31.7211 14.8317 30.6184 13.7791C29.5485 12.6918 28.2619 11.8316 26.8386 11.2519C25.4152 10.6723 23.8854 10.3856 22.3442 10.4096C20.806 10.3868 19.2793 10.6741 17.8591 11.2537C16.4389 11.8334 15.1555 12.693 14.0885 13.7791C12.9858 14.8317 12.1137 16.0937 11.5257 17.4879C10.9376 18.8821 10.646 20.3792 10.6685 21.8876C10.6453 23.3961 10.9367 24.8934 11.5248 26.2876C12.1129 27.6819 12.9852 28.9438 14.0885 29.9961C15.1605 31.0733 16.4457 31.9246 17.8653 32.4978C19.2849 33.071 20.8091 33.354 22.3442 33.3295C23.8823 33.3552 25.4096 33.0728 26.8324 32.4996C28.2551 31.9264 29.5435 31.0745 30.6184 29.9961C31.7216 28.9438 32.594 27.6819 33.1821 26.2876C33.7702 24.8934 34.0616 23.3961 34.0383 21.8876Z" fill="url(#paint0_linear_722_16050)"/>
<path d="M69.9959 57.5037L69.9407 57.2046C69.9407 57.2046 69.9407 57.1757 69.9407 57.1649C69.6943 55.7427 69.277 54.354 68.6977 53.0278C67.7308 50.7624 66.3189 48.7053 64.5423 46.9735C62.7484 45.2035 60.6139 43.8 58.2626 42.8442C55.9112 41.8885 53.3896 41.3995 50.844 41.4057C49.4216 41.4299 48.0051 41.5917 46.615 41.8886C46.5268 41.9066 46.4348 41.9246 46.3503 41.9498C45.8315 42.099 45.3697 42.3958 45.0233 42.8026C44.677 43.2093 44.4617 43.7078 44.4049 44.2346C44.3994 44.3258 44.3994 44.4173 44.4049 44.5085C44.3993 44.5901 44.3993 44.672 44.4049 44.7536C44.4011 44.7665 44.4011 44.7802 44.4049 44.7932C44.4432 45.1494 44.5559 45.4941 44.7359 45.8059C44.8131 45.914 44.883 46.0221 44.9528 46.1302C47.2951 49.697 48.7279 53.7634 49.1304 57.9866C49.1266 57.9995 49.1266 58.0133 49.1304 58.0262C49.202 58.6787 49.5173 59.2821 50.0156 59.7205C50.5139 60.1589 51.1599 60.4013 51.8296 60.4011H67.2746C67.9944 60.4011 68.6847 60.1209 69.1936 59.6221C69.7026 59.1234 69.9885 58.4469 69.9885 57.7415C70.0008 57.6622 70.0032 57.583 69.9959 57.5037Z" fill="url(#paint1_linear_722_16050)"/>
<path d="M44.6881 57.7486C44.6881 58.454 44.4021 59.1305 43.8932 59.6292C43.3842 60.128 42.6939 60.4082 41.9742 60.4082H2.72171C2.0016 60.4082 1.31092 60.1281 0.801383 59.6294C0.291841 59.1308 0.00509442 58.4543 0.00411997 57.7486C-0.00137332 57.6574 -0.00137332 57.566 0.00411997 57.4747C0.00411997 57.3846 0.0298616 57.2982 0.0445711 57.2117C0.830158 51.9695 3.51371 47.1791 7.60514 43.7154C11.6966 40.2517 16.9229 38.3458 22.3295 38.3458C27.7362 38.3458 32.9625 40.2517 37.0539 43.7154C41.1454 47.1791 43.8289 51.9695 44.6145 57.2117L44.6586 57.5108C44.6783 57.5901 44.6881 57.6693 44.6881 57.7486Z" fill="url(#paint2_linear_722_16050)"/>
<defs>
<linearGradient id="paint0_linear_722_16050" x1="3.68019e-07" y1="26.4082" x2="71.1267" y2="31.4756" gradientUnits="userSpaceOnUse">
<stop stop-color="white" stop-opacity="0.5"/>
<stop offset="1" stop-color="#FDFDFD" stop-opacity="0.4"/>
</linearGradient>
<linearGradient id="paint1_linear_722_16050" x1="3.68019e-07" y1="26.4082" x2="71.1267" y2="31.4756" gradientUnits="userSpaceOnUse">
<stop stop-color="white" stop-opacity="0.5"/>
<stop offset="1" stop-color="#FDFDFD" stop-opacity="0.4"/>
</linearGradient>
<linearGradient id="paint2_linear_722_16050" x1="3.68019e-07" y1="26.4082" x2="71.1267" y2="31.4756" gradientUnits="userSpaceOnUse">
<stop stop-color="white" stop-opacity="0.5"/>
<stop offset="1" stop-color="#FDFDFD" stop-opacity="0.4"/>
</linearGradient>
</defs>
</svg>
