<svg width="70" height="70" viewBox="0 0 70 70" fill="none" xmlns="http://www.w3.org/2000/svg">
<path fill-rule="evenodd" clip-rule="evenodd" d="M35 39.2266C36.7849 39.2307 38.531 38.7165 40.017 37.7491C41.5031 36.7817 42.6624 35.4046 43.3482 33.7922C44.034 32.1798 44.2154 30.4045 43.8695 28.6912C43.5236 26.9778 42.6659 25.4034 41.4049 24.1673C40.144 22.9312 38.5366 22.0889 36.7862 21.7471C35.0358 21.4053 33.2211 21.5793 31.5718 22.2472C29.9226 22.9151 28.5129 24.0467 27.5213 25.4989C26.5297 26.9511 26.0008 28.6585 26.0015 30.4049C26.0001 31.5623 26.2318 32.7087 26.6833 33.7785C27.1348 34.8483 27.7973 35.8205 28.633 36.6398C29.4686 37.459 30.461 38.1091 31.5535 38.5529C32.6459 38.9968 33.8171 39.2257 35 39.2266ZM36.792 59.1713C36.2919 59.5877 35.6567 59.8164 35 59.8164C34.3433 59.8164 33.7081 59.5877 33.208 59.1713C20.4015 48.5894 14 40.3738 14 30.6378C14 15.3676 25.347 9.81641 35 9.81641C44.9575 9.81641 56 15.3676 56 30.6378C56 40.3738 49.5985 48.5894 36.792 59.1713Z" fill="url(#paint0_linear_722_16052)"/>
<defs>
<linearGradient id="paint0_linear_722_16052" x1="14" y1="25.8164" x2="56.8144" y2="27.6466" gradientUnits="userSpaceOnUse">
<stop stop-color="white" stop-opacity="0.5"/>
<stop offset="1" stop-color="#FDFDFD" stop-opacity="0.4"/>
</linearGradient>
</defs>
</svg>
